<svg xmlns="http://www.w3.org/2000/svg" version="1.0" width="32" height="32" viewBox="0 0 260 260"><path d="M122 14.9c-8.5 8.6-15.5 13.1-26 16.7-6 2.1-8.6 2.5-15.4 2.1-4.4-.2-9.1-.7-10.3-1.2-2-.6-2.3-.4-2.3 1.8 0 3.4-2.6 10.5-5.4 14.8l-2.4 3.6 2.5 3.1c1.3 1.8 2.9 3.2 3.4 3.2s3.2-1.8 6.1-4c7.6-5.8 21-12.5 31.4-15.6 8.2-2.6 10.2-2.8 26.4-2.8s18.2.2 26.4 2.8c10.4 3.1 23.8 9.8 31.4 15.6 2.9 2.2 5.6 4 6.1 4s2.1-1.4 3.4-3.1l2.5-3.2-2.9-4.6c-1.6-2.5-3.5-7.1-4.3-10.1-1.1-4.5-1.7-5.4-3.2-5.1-1.1.2-5.5.6-10 .8-6.4.3-9.4 0-14.5-1.7-10.6-3.6-18.8-8.7-27.2-17.2-4.3-4.3-7.9-7.8-8-7.7s-3.6 3.6-7.7 7.8z"/><path d="M123.5 41.6c-14.1 2.2-25.8 9.1-33 19.4l-2.8 4 2.8 4c3.1 4.5 8.3 9 18.6 16.2 8.5 6 16.3 14.5 18.4 20.3 1 2.5 2 4.5 2.4 4.4.3 0 1.8-2.6 3.3-5.7 3.1-6.6 8.7-12.6 17.8-19 9.9-7 15.6-12 18.5-16.2l2.7-3.9-3-4.4c-5.6-8-14.3-14.2-23.9-17.1-5.7-1.6-17.1-2.7-21.8-2zm22.8 9.6c5.2 2.4 16.7 12 16.7 13.9 0 1.3-12.2 10.5-18 13.5-4.9 2.6-6.5 2.9-15 2.9-9.1 0-9.8-.2-16.5-3.8-3.8-2-9.2-5.7-11.9-8.1l-5-4.3 2.5-3c3.7-4.6 10.3-9.3 16.6-11.9 5-2.1 7.1-2.4 15.3-2.2 7.8.3 10.5.8 15.3 3z"/><path d="M123 51.9c-13.8 7.3-8.7 28.1 7 28.1 15.3 0 20.7-20.1 7.4-27.7-4.8-2.8-9.8-2.9-14.4-.4zm8.2 7.7c2.2 4.7-4.9 10.1-7.9 6.1-2.3-2.9-2.3-4.8.1-7.2 2.8-2.8 6.2-2.4 7.8 1.1zM44.6 47.1c-6.7 7.4-16 21.7-18.6 28.6-6.5 17.5-4.8 32.2 5.5 46.2 8.2 11.1 24.3 22.3 42.2 29.4 4.6 1.7 8.3 3.5 8.3 3.9 0 .3-1.3.9-3 1.3-4.7 1-14.5 7.9-17.1 12.1-1.9 3-2.4 5.2-2.3 9.9.1 13.9 10 26 29.2 35.8 6.2 3.1 12.2 5.7 13.3 5.7 3.3 0 11.4-9 15.2-17.1 7.2-14.8 10.3-35.1 9.4-60.9-.8-23.4-3.3-31.5-12.9-41.6-2.8-3-8.5-7.5-12.7-10-32.9-20.3-48.7-34.5-51-45.8l-.6-2.9-4.9 5.4zM210 43.8c-.1 9.9-17.8 26-51.1 46.6-4.2 2.5-9.9 7-12.7 10-9.6 10.1-12.1 18.2-12.9 41.6-.9 25.8 2.2 46.1 9.4 60.9 3.8 8.1 11.9 17.1 15.2 17.1 1.1 0 7-2.5 13.1-5.6 19.3-9.8 29.3-22 29.4-35.9.1-4.7-.4-6.9-2.3-9.9-2.6-4.2-12.4-11.1-17.1-12.1-1.7-.4-3-1-3-1.3 0-.4 3.7-2.2 8.3-3.9 17.9-7.1 34-18.3 42.2-29.4 10.3-14 12-28.7 5.5-46.2-2.7-7.2-12.1-21.5-18.8-28.7-4.4-4.8-5.1-5.2-5.2-3.2z"/><path d="M24 136.5c0 26.7 6.9 45.6 24.5 66.6 15.1 18 44.1 37.2 72.7 47.9l8.7 3.3 8.3-3.3c42.9-17 76.4-44.7 89.8-74.4 5.5-12 7.2-19.9 7.7-35.8.3-8.1.3-15.5-.1-16.4-.5-1.3-1.4-.8-4.5 2.7-3.7 4.2-3.8 4.7-4.4 13.4-2.8 42.1-33.2 77.6-75.5 88.2-10.3 2.6-34.1 2.3-44.6-.5-41.5-11.4-70.6-46.1-73.3-87.7-.6-8.5-.8-9.2-4.1-13-2-2.2-3.9-4.2-4.4-4.3-.4-.2-.8 5.8-.8 13.3z"/></svg>